<?xml version="1.0" encoding="UTF-8"?>
<svg xmlns="http://www.w3.org/2000/svg" xmlns:xlink="http://www.w3.org/1999/xlink" width="40px" height="40px" viewBox="0 0 40 40" version="1.1">
<g id="surface1">
<path style=" stroke:none;fill-rule:nonzero;fill:rgb(38.82353%,39.215687%,40.000001%);fill-opacity:1;" d="M 6.4375 30.777344 C 6.4375 31.355469 5.957031 31.871094 5.328125 31.871094 C 4.847656 31.871094 4.429688 31.996094 4.074219 32.261719 C 3.679688 32.511719 3.363281 32.863281 3.113281 33.253906 C 2.613281 33.914062 2.363281 34.699219 2.257812 34.988281 L 2.257812 38.90625 C 2.257812 39.503906 1.734375 40 1.109375 40 C 0.5 40 0 39.503906 0 38.90625 L 0 30.777344 C 0 30.179688 0.5 29.703125 1.109375 29.703125 C 1.734375 29.703125 2.257812 30.179688 2.257812 30.777344 L 2.257812 30.921875 C 2.382812 30.777344 2.550781 30.613281 2.695312 30.507812 C 3.386719 30.054688 4.285156 29.683594 5.328125 29.703125 C 5.957031 29.703125 6.4375 30.179688 6.4375 30.777344 Z M 5.804688 34.851562 C 5.824219 32.050781 8.039062 29.703125 10.902344 29.703125 C 13.617188 29.703125 15.769531 31.703125 15.9375 34.480469 L 15.9375 34.585938 C 15.9375 34.625 15.9375 34.726562 15.914062 34.769531 C 15.851562 35.265625 15.414062 35.59375 14.828125 35.59375 L 8.1875 35.59375 C 8.289062 36.066406 8.519531 36.601562 8.898438 36.953125 C 9.335938 37.445312 10.171875 37.816406 10.902344 37.878906 C 11.652344 37.941406 12.550781 37.753906 13.074219 37.363281 C 13.511719 36.910156 14.371094 36.972656 14.640625 37.300781 C 14.914062 37.589844 15.121094 38.207031 14.640625 38.640625 C 13.617188 39.566406 12.386719 40 10.902344 40 C 8.039062 39.980469 5.824219 37.652344 5.804688 34.851562 Z M 8.082031 33.84375 L 13.992188 33.84375 C 13.785156 33.019531 12.71875 31.804688 10.902344 31.660156 C 9.125 31.742188 8.25 33 8.082031 33.84375 Z M 26.703125 38.882812 C 26.703125 39.484375 26.195312 40 25.5625 40 C 24.996094 40 24.554688 39.609375 24.449219 39.113281 C 23.648438 39.648438 22.636719 40 21.582031 40 C 18.738281 40 16.464844 37.644531 16.464844 34.859375 C 16.464844 32.027344 18.738281 29.675781 21.582031 29.675781 C 22.617188 29.675781 23.625 30.003906 24.40625 30.542969 L 24.40625 26.660156 C 24.40625 26.058594 24.910156 25.542969 25.5625 25.542969 C 26.195312 25.542969 26.703125 26.058594 26.703125 26.660156 Z M 21.582031 31.925781 C 20.824219 31.925781 20.128906 32.234375 19.601562 32.773438 C 19.078125 33.289062 18.761719 34.03125 18.761719 34.859375 C 18.761719 35.640625 19.078125 36.386719 19.601562 36.902344 C 20.128906 37.4375 20.824219 37.75 21.582031 37.75 C 22.363281 37.75 23.035156 37.4375 23.5625 36.902344 C 24.089844 36.386719 24.40625 35.640625 24.40625 34.859375 C 24.40625 34.03125 24.089844 33.289062 23.5625 32.773438 C 23.035156 32.234375 22.363281 31.925781 21.582031 31.925781 Z M 30.605469 27.09375 C 30.605469 27.710938 30.136719 28.230469 29.5 28.230469 C 28.882812 28.230469 28.390625 27.710938 28.390625 27.09375 L 28.390625 26.660156 C 28.390625 26.039062 28.882812 25.542969 29.5 25.542969 C 30.136719 25.542969 30.605469 26.039062 30.605469 26.660156 Z M 30.605469 30.832031 L 30.605469 38.882812 C 30.605469 39.503906 30.136719 40 29.5 40 C 28.882812 40 28.390625 39.503906 28.390625 38.882812 L 28.390625 30.832031 C 28.390625 30.171875 28.882812 29.695312 29.5 29.695312 C 30.136719 29.695312 30.605469 30.171875 30.605469 30.832031 Z M 32.117188 37.054688 C 32.492188 36.5625 33.222656 36.5 33.683594 36.890625 C 34.222656 37.34375 35.164062 37.816406 35.976562 37.796875 C 36.539062 37.796875 37.058594 37.613281 37.394531 37.40625 C 37.683594 37.160156 37.769531 36.953125 37.769531 36.789062 C 37.769531 36.683594 37.746094 36.644531 37.707031 36.582031 C 37.683594 36.519531 37.601562 36.4375 37.433594 36.335938 C 37.144531 36.128906 36.515625 35.902344 35.765625 35.757812 L 35.746094 35.757812 C 35.097656 35.632812 34.472656 35.46875 33.933594 35.222656 C 33.367188 34.953125 32.867188 34.585938 32.492188 34.027344 C 32.265625 33.65625 32.140625 33.203125 32.140625 32.730469 C 32.140625 31.785156 32.679688 30.980469 33.367188 30.464844 C 34.097656 29.972656 34.972656 29.703125 35.933594 29.703125 C 37.371094 29.703125 38.394531 30.382812 39.0625 30.835938 C 39.5625 31.167969 39.707031 31.847656 39.394531 32.359375 C 39.0625 32.855469 38.375 33 37.851562 32.648438 C 37.183594 32.214844 36.601562 31.886719 35.933594 31.886719 C 35.414062 31.886719 34.953125 32.050781 34.683594 32.257812 C 34.410156 32.441406 34.347656 32.628906 34.347656 32.730469 C 34.347656 32.8125 34.347656 32.835938 34.390625 32.894531 C 34.410156 32.9375 34.472656 33.019531 34.621094 33.101562 C 34.890625 33.285156 35.433594 33.472656 36.140625 33.597656 L 36.164062 33.617188 L 36.183594 33.617188 C 36.871094 33.738281 37.519531 33.925781 38.125 34.214844 C 38.6875 34.460938 39.25 34.851562 39.605469 35.429688 C 39.855469 35.839844 40 36.3125 40 36.789062 C 40 37.796875 39.4375 38.640625 38.6875 39.175781 C 37.9375 39.691406 36.996094 40 35.976562 40 C 34.347656 39.980469 33.097656 39.238281 32.265625 38.578125 C 31.804688 38.207031 31.742188 37.507812 32.117188 37.054688 Z M 32.117188 37.054688 "/>
<path style=" stroke:none;fill-rule:nonzero;fill:rgb(64.313728%,11.764706%,6.666667%);fill-opacity:1;" d="M 33.066406 18.496094 C 31.554688 19.273438 23.714844 22.453125 22.046875 23.3125 C 20.375 24.167969 19.449219 24.160156 18.132812 23.539062 C 16.8125 22.917969 8.46875 19.59375 6.96875 18.882812 C 6.214844 18.53125 5.820312 18.230469 5.820312 17.949219 L 5.820312 15.121094 C 5.820312 15.121094 16.683594 12.789062 18.4375 12.167969 C 20.1875 11.546875 20.796875 11.523438 22.289062 12.0625 C 23.78125 12.601562 32.703125 14.191406 34.179688 14.722656 C 34.179688 14.722656 34.179688 17.25 34.179688 17.511719 C 34.179688 17.792969 33.839844 18.097656 33.066406 18.496094 Z M 33.066406 18.496094 "/>
<path style=" stroke:none;fill-rule:nonzero;fill:rgb(84.705883%,17.254902%,12.54902%);fill-opacity:1;" d="M 33.066406 15.609375 C 31.554688 16.382812 23.714844 19.542969 22.046875 20.394531 C 20.375 21.25 19.449219 21.242188 18.132812 20.621094 C 16.8125 20.003906 8.46875 16.703125 6.96875 16 C 5.464844 15.292969 5.433594 14.808594 6.910156 14.242188 C 8.386719 13.675781 16.683594 10.484375 18.4375 9.871094 C 20.1875 9.253906 20.796875 9.230469 22.289062 9.765625 C 23.78125 10.300781 31.574219 13.34375 33.050781 13.871094 C 34.523438 14.402344 34.582031 14.835938 33.066406 15.609375 Z M 33.066406 15.609375 "/>
<path style=" stroke:none;fill-rule:nonzero;fill:rgb(64.313728%,11.764706%,6.666667%);fill-opacity:1;" d="M 33.066406 13.800781 C 31.554688 14.578125 23.714844 17.761719 22.046875 18.617188 C 20.375 19.476562 19.449219 19.46875 18.132812 18.847656 C 16.8125 18.226562 8.46875 14.898438 6.96875 14.191406 C 6.214844 13.835938 5.820312 13.539062 5.820312 13.257812 L 5.820312 10.429688 C 5.820312 10.429688 16.683594 8.09375 18.4375 7.476562 C 20.1875 6.855469 20.796875 6.832031 22.289062 7.371094 C 23.78125 7.910156 32.703125 9.5 34.179688 10.03125 C 34.179688 10.03125 34.179688 12.558594 34.179688 12.820312 C 34.179688 13.097656 33.839844 13.40625 33.066406 13.800781 Z M 33.066406 13.800781 "/>
<path style=" stroke:none;fill-rule:nonzero;fill:rgb(84.705883%,17.254902%,12.54902%);fill-opacity:1;" d="M 33.066406 11.023438 C 31.554688 11.796875 23.714844 14.953125 22.046875 15.808594 C 20.375 16.660156 19.449219 16.652344 18.132812 16.035156 C 16.8125 15.417969 8.46875 12.113281 6.96875 11.410156 C 5.464844 10.707031 5.433594 10.222656 6.910156 9.65625 C 8.386719 9.089844 16.683594 5.898438 18.4375 5.28125 C 20.1875 4.664062 20.796875 4.644531 22.289062 5.179688 C 23.78125 5.714844 31.574219 8.753906 33.050781 9.285156 C 34.523438 9.8125 34.582031 10.25 33.066406 11.023438 Z M 33.066406 11.023438 "/>
<path style=" stroke:none;fill-rule:nonzero;fill:rgb(64.313728%,11.764706%,6.666667%);fill-opacity:1;" d="M 33.066406 9.109375 C 31.554688 9.886719 23.714844 13.066406 22.046875 13.925781 C 20.375 14.785156 19.449219 14.777344 18.132812 14.15625 C 16.8125 13.53125 8.46875 10.207031 6.96875 9.5 C 6.214844 9.144531 5.820312 8.847656 5.820312 8.5625 L 5.820312 5.734375 C 5.820312 5.734375 16.683594 3.402344 18.4375 2.78125 C 20.1875 2.160156 20.796875 2.140625 22.289062 2.679688 C 23.78125 3.21875 32.703125 4.804688 34.179688 5.339844 C 34.179688 5.339844 34.179688 7.863281 34.179688 8.128906 C 34.179688 8.40625 33.839844 8.714844 33.066406 9.109375 Z M 33.066406 9.109375 "/>
<path style=" stroke:none;fill-rule:nonzero;fill:rgb(84.705883%,17.254902%,12.54902%);fill-opacity:1;" d="M 33.066406 6.226562 C 31.554688 7 23.714844 10.160156 22.046875 11.011719 C 20.375 11.863281 19.449219 11.855469 18.132812 11.238281 C 16.8125 10.621094 8.46875 7.316406 6.96875 6.613281 C 5.464844 5.910156 5.433594 5.425781 6.910156 4.859375 C 8.386719 4.292969 16.683594 1.101562 18.4375 0.484375 C 20.1875 -0.132812 20.796875 -0.152344 22.289062 0.382812 C 23.78125 0.917969 31.574219 3.957031 33.050781 4.488281 C 34.523438 5.015625 34.582031 5.453125 33.066406 6.226562 Z M 33.066406 6.226562 "/>
<path style=" stroke:none;fill-rule:nonzero;fill:rgb(100%,100%,100%);fill-opacity:1;" d="M 23.742188 3.480469 L 21.28125 3.726562 L 20.730469 5.003906 L 19.839844 3.578125 L 16.996094 3.332031 L 19.117188 2.59375 L 18.480469 1.460938 L 20.464844 2.210938 L 22.339844 1.617188 L 21.832031 2.789062 Z M 23.742188 3.480469 "/>
<path style=" stroke:none;fill-rule:nonzero;fill:rgb(100%,100%,100%);fill-opacity:1;" d="M 20.503906 9.800781 L 15.941406 7.960938 L 22.476562 6.988281 Z M 20.503906 9.800781 "/>
<path style=" stroke:none;fill-rule:nonzero;fill:rgb(100%,100%,100%);fill-opacity:1;" d="M 17.734375 5.527344 C 17.734375 4.777344 16.175781 4.171875 14.253906 4.171875 C 12.332031 4.171875 10.777344 4.777344 10.777344 5.527344 C 10.777344 6.273438 12.332031 6.882812 14.253906 6.882812 C 16.175781 6.882812 17.734375 6.273438 17.734375 5.527344 Z M 17.734375 5.527344 "/>
<path style=" stroke:none;fill-rule:nonzero;fill:rgb(47.843137%,4.705882%,0%);fill-opacity:1;" d="M 26.589844 3.859375 L 30.488281 5.371094 L 26.59375 6.882812 Z M 26.589844 3.859375 "/>
<path style=" stroke:none;fill-rule:nonzero;fill:rgb(67.843139%,12.941177%,8.235294%);fill-opacity:1;" d="M 22.371094 5.558594 L 26.585938 3.859375 L 26.589844 6.925781 L 26.175781 7.089844 Z M 22.371094 5.558594 "/>
</g>
</svg>
